<svg xmlns="http://www.w3.org/2000/svg" xml:space="preserve" style="fill-rule:evenodd;clip-rule:evenodd;stroke-linecap:round;stroke-linejoin:round;stroke-miterlimit:1.5" viewBox="0 0 100 100">
  <path d="m37.433.032 2.995-.014 24.188.026 7.439.018c3.948.012 8.019.032 11.863 1.043.223.058.446.119.667.185a19.41 19.41 0 0 1 1.314.433 20.976 20.976 0 0 1 3.732 1.807 20.631 20.631 0 0 1 1.156.762 22.149 22.149 0 0 1 1.102.837c.18.145.356.294.53.445a18.833 18.833 0 0 1 1.015.942c6.012 5.969 6.53 13.107 6.559 21.141l.006 32.213-.001 10.378c-.001 4.315.093 8.783-.893 13.01a21.359 21.359 0 0 1-1.423 4.183 20.325 20.325 0 0 1-1.032 1.957 19.92 19.92 0 0 1-.8 1.24 23.284 23.284 0 0 1-.885 1.181 19.692 19.692 0 0 1-.966 1.115c-.167.181-.337.358-.511.532-5.78 5.805-12.429 6.388-20.214 6.504-3.558.053-7.12.02-10.678.019l-25.444.001-8.286-.002c-4.078-.007-8.324.023-12.307-.957a22.52 22.52 0 0 1-1.353-.373 19.996 19.996 0 0 1-1.326-.462 21.542 21.542 0 0 1-1.923-.856 21.607 21.607 0 0 1-2.413-1.432 20.433 20.433 0 0 1-1.672-1.278 19.381 19.381 0 0 1-1.041-.942C.846 87.829.159 81.03.083 73.061L.013 40.99c-.028-4.076-.011-8.151.051-12.227.047-4.05-.001-8.185.945-12.148a20.178 20.178 0 0 1 .375-1.384 22.625 22.625 0 0 1 .469-1.356 22.514 22.514 0 0 1 .874-1.965 22.613 22.613 0 0 1 .693-1.256 19.23 19.23 0 0 1 .777-1.205 19.942 19.942 0 0 1 1.314-1.702 20.303 20.303 0 0 1 .971-1.056C12.498.579 19.713.089 27.839.063l9.594-.031ZM31.25 17.524 12.5 50l18.75 32.476h37.5L87.5 50 68.75 17.524h-37.5Z"/>
  <path d="M31.25 17.524h37.5L87.5 50 68.75 82.476h-37.5L12.5 50l18.75-32.476Z" style="fill:#fff"/>
  <path d="M68.75 17.524h-37.5L12.5 50.009l18.75 32.467h37.5L87.5 50.009 50 50" style="fill:none;stroke:#ff7300;stroke-width:3.75px"/>
  <g id="レイヤー1">
    <circle cx="31.25" cy="82.476" r="6.25" style="fill:#0caaf7"/>
    <circle cx="68.75" cy="82.476" r="6.25" style="fill:#0caaf7"/>
    <circle cx="87.5" cy="50.009" r="6.25" style="fill:#0caaf7"/>
    <circle cx="50" cy="50" r="6.25" style="fill:#ff0039"/>
    <circle cx="68.75" cy="17.524" r="6.25" style="fill:#0caaf7"/>
    <circle cx="31.25" cy="17.524" r="6.25" style="fill:#0caaf7"/>
    <circle cx="12.5" cy="50" r="6.25" style="fill:#0caaf7"/>
  </g>
</svg>
